# xmcd
# 
# Track frame offsets:
#     150
#     25100
#     44478
#     66209
#     96714
#     120004
#     135261
#     154807
#     175731
#     194674
#     212004
#     248038
# 
# Disc length: 3668
# 
# Revision: 4
# Processed by: cddbd v1.5.2PL0 Copyright (c) Steve Scherf et al.
# Submitted via: fre:ac v1.0.17
# 
DISCID=a20e520c
DTITLE=Rui Veloso - O Concerto Acústico CD2
DYEAR=2003
DGENRE=Rock
TTITLE0=O Prometido e Devido
TTITLE1=Dia De Passeio
TTITLE2=Lado Lunar
TTITLE3=Nao Me Mintas
TTITLE4=A Paixao
TTITLE5=Chico Fininho
TTITLE6=Nao Ha Estrelas No Ceu
TTITLE7=Presepio De Lata
TTITLE8=Cavaleiro Andante
TTITLE9=Primeiro Beijo
TTITLE10=Porto Sentido
TTITLE11=Data Track
EXTD=
EXTT0=Carlos Tê - Rui Veloso
EXTT1=João Monge - João Gil
EXTT2=Carlos Tê - Rui Veloso
EXTT3=Carlos Tê - Rui Veloso
EXTT4=Carlos Tê - Rui Veloso
EXTT5=Carlos Tê
EXTT6=Carlos Tê - Rui Veloso
EXTT7=Carlos Tê - Rui Veloso
EXTT8=Carlos Tê - Rui Veloso
EXTT9=Carlos Tê - Rui Veloso
EXTT10=Carlos Tê - Rui Veloso
EXTT11=
PLAYORDER=
